<svg width="1769" height="693" viewBox="0 0 1769 693" fill="none" xmlns="http://www.w3.org/2000/svg">
<rect width="1769" height="693" fill="#2A2E4F" style="fill:#2A2E4F;fill:color(display-p3 0.1647 0.1804 0.3098);fill-opacity:1;"/>
<path d="M331.711 418.187V271.429H356.238V292.538H361.867L356.238 298.368C356.238 289.388 358.919 282.352 364.28 277.259C369.641 272.032 376.878 269.419 385.992 269.419C397.116 269.419 406.028 273.238 412.73 280.878C419.431 288.517 422.782 298.77 422.782 311.637V341.591C422.782 350.169 421.24 357.674 418.158 364.108C415.209 370.407 410.987 375.299 405.492 378.783C399.997 382.268 393.497 384.01 385.992 384.01C376.878 384.01 369.641 381.464 364.28 376.371C358.919 371.144 356.238 364.041 356.238 355.061L361.867 360.891H356.037L356.841 387.227V418.187H331.711ZM377.146 362.298C383.579 362.298 388.605 360.422 392.224 356.669C395.843 352.916 397.652 347.555 397.652 340.586V312.843C397.652 305.874 395.843 300.513 392.224 296.76C388.605 293.007 383.579 291.131 377.146 291.131C370.847 291.131 365.888 293.074 362.269 296.961C358.65 300.714 356.841 306.008 356.841 312.843V340.586C356.841 347.421 358.65 352.782 362.269 356.669C365.888 360.422 370.847 362.298 377.146 362.298ZM497.891 382C490.654 382 484.288 380.526 478.793 377.577C473.432 374.629 469.21 370.474 466.127 365.113C463.045 359.618 461.503 353.319 461.503 346.215V257.959H426.121V235.242H486.633V346.215C486.633 350.236 487.772 353.453 490.051 355.865C492.463 358.143 495.68 359.283 499.701 359.283H533.073V382H497.891ZM573.202 384.01C561.81 384.01 552.83 380.995 546.263 374.964C539.696 368.933 536.412 360.824 536.412 350.638C536.412 339.782 540.031 331.405 547.268 325.508C554.506 319.611 564.759 316.663 578.027 316.663H605.569V307.214C605.569 301.853 603.827 297.698 600.342 294.749C596.858 291.667 592.1 290.126 586.069 290.126C580.574 290.126 576.017 291.332 572.398 293.744C568.779 296.157 566.635 299.44 565.965 303.595H541.438C542.644 293.141 547.335 284.832 555.511 278.666C563.686 272.501 574.14 269.419 586.873 269.419C600.409 269.419 611.064 272.836 618.838 279.672C626.745 286.373 630.699 295.487 630.699 307.013V382H606.373V362.7H602.353L606.373 357.272C606.373 365.448 603.358 371.948 597.327 376.773C591.296 381.598 583.254 384.01 573.202 384.01ZM581.445 365.113C588.548 365.113 594.311 363.303 598.734 359.685C603.291 356.066 605.569 351.375 605.569 345.612V332.143H578.429C573.336 332.143 569.248 333.617 566.166 336.565C563.083 339.514 561.542 343.401 561.542 348.226C561.542 353.453 563.284 357.607 566.769 360.69C570.388 363.639 575.28 365.113 581.445 365.113ZM645.095 382V271.429H669.622V292.538H676.457L669.622 298.368C669.622 289.254 672.235 282.151 677.462 277.058C682.823 271.965 690.128 269.419 699.376 269.419C710.232 269.419 718.876 273.037 725.31 280.275C731.877 287.512 735.16 297.229 735.16 309.425V382H710.031V312.039C710.031 305.337 708.288 300.177 704.804 296.559C701.319 292.94 696.427 291.131 690.128 291.131C683.963 291.131 679.071 293.007 675.452 296.76C671.967 300.513 670.225 305.874 670.225 312.843V382H645.095ZM794.388 383.809C785.006 383.809 776.831 382.067 769.861 378.582C763.026 374.964 757.665 369.938 753.778 363.504C750.026 356.937 748.149 349.231 748.149 340.385V313.044C748.149 304.198 750.026 296.559 753.778 290.126C757.665 283.558 763.026 278.532 769.861 275.048C776.831 271.429 785.006 269.62 794.388 269.62C803.904 269.62 812.079 271.429 818.915 275.048C825.75 278.532 831.044 283.558 834.797 290.126C838.684 296.559 840.627 304.131 840.627 312.843V340.385C840.627 349.231 838.684 356.937 834.797 363.504C831.044 369.938 825.75 374.964 818.915 378.582C812.079 382.067 803.904 383.809 794.388 383.809ZM794.388 361.896C801.089 361.896 806.249 360.087 809.868 356.468C813.621 352.715 815.497 347.354 815.497 340.385V313.044C815.497 305.941 813.621 300.58 809.868 296.961C806.249 293.342 801.089 291.533 794.388 291.533C787.821 291.533 782.661 293.342 778.908 296.961C775.155 300.58 773.279 305.941 773.279 313.044V340.385C773.279 347.354 775.155 352.715 778.908 356.468C782.661 360.087 787.821 361.896 794.388 361.896Z" fill="#7780D9" style="fill:#7780D9;fill:color(display-p3 0.4667 0.5020 0.8510);fill-opacity:1;"/>
<rect x="140" y="235.402" width="147.807" height="147.807" fill="#7780D9" style="fill:#7780D9;fill:color(display-p3 0.4667 0.5020 0.8510);fill-opacity:1;"/>
<rect x="151.37" y="246.771" width="125.067" height="125.067" fill="#B9BFFF" style="fill:#B9BFFF;fill:color(display-p3 0.7246 0.7499 1.0000);fill-opacity:1;"/>
<path d="M157.055 252.456H168.424V263.825H157.055V252.456Z" fill="#B0B7FF" style="fill:#B0B7FF;fill:color(display-p3 0.6897 0.7182 1.0000);fill-opacity:1;"/>
<path d="M157.055 269.51H168.424V280.88H157.055V269.51Z" fill="#B0B7FF" style="fill:#B0B7FF;fill:color(display-p3 0.6897 0.7182 1.0000);fill-opacity:1;"/>
<path d="M157.055 286.565H168.424V297.935H157.055V286.565Z" fill="#B0B7FF" style="fill:#B0B7FF;fill:color(display-p3 0.6897 0.7182 1.0000);fill-opacity:1;"/>
<path d="M157.055 303.62H168.424V314.989H157.055V303.62Z" fill="#ABB2FA" style="fill:#ABB2FA;fill:color(display-p3 0.6706 0.6990 0.9799);fill-opacity:1;"/>
<path d="M157.055 320.675H168.424V332.044H157.055V320.675Z" fill="#ABB2FA" style="fill:#ABB2FA;fill:color(display-p3 0.6706 0.6990 0.9799);fill-opacity:1;"/>
<path d="M157.055 337.729H168.424V349.099H157.055V337.729Z" fill="#ABB2FA" style="fill:#ABB2FA;fill:color(display-p3 0.6706 0.6990 0.9799);fill-opacity:1;"/>
<path d="M157.055 354.784H168.424V366.153H157.055V354.784Z" fill="#969FF4" style="fill:#969FF4;fill:color(display-p3 0.5882 0.6220 0.9566);fill-opacity:1;"/>
<path d="M208.219 252.456H219.589V263.825H208.219V252.456Z" fill="#ABB2FA" style="fill:#ABB2FA;fill:color(display-p3 0.6706 0.6990 0.9799);fill-opacity:1;"/>
<path d="M208.219 269.51H219.589V280.88H208.219V269.51Z" fill="#ABB2FA" style="fill:#ABB2FA;fill:color(display-p3 0.6706 0.6990 0.9799);fill-opacity:1;"/>
<path d="M208.219 286.565H219.589V297.935H208.219V286.565Z" fill="#ABB2FA" style="fill:#ABB2FA;fill:color(display-p3 0.6706 0.6990 0.9799);fill-opacity:1;"/>
<path d="M208.219 303.62H219.589V314.989H208.219V303.62Z" fill="#969FF4" style="fill:#969FF4;fill:color(display-p3 0.5882 0.6220 0.9566);fill-opacity:1;"/>
<path d="M208.219 320.675H219.589V332.044H208.219V320.675Z" fill="#969FF4" style="fill:#969FF4;fill:color(display-p3 0.5882 0.6220 0.9566);fill-opacity:1;"/>
<path d="M208.219 337.729H219.589V349.099H208.219V337.729Z" fill="#969FF4" style="fill:#969FF4;fill:color(display-p3 0.5882 0.6220 0.9566);fill-opacity:1;"/>
<path d="M208.219 354.784H219.589V366.153H208.219V354.784Z" fill="#969FF4" style="fill:#969FF4;fill:color(display-p3 0.5882 0.6220 0.9566);fill-opacity:1;"/>
<path d="M174.11 252.456H185.48V263.825H174.11V252.456Z" fill="#B0B7FF" style="fill:#B0B7FF;fill:color(display-p3 0.6897 0.7182 1.0000);fill-opacity:1;"/>
<path d="M174.11 269.51H185.48V280.88H174.11V269.51Z" fill="#B0B7FF" style="fill:#B0B7FF;fill:color(display-p3 0.6897 0.7182 1.0000);fill-opacity:1;"/>
<path d="M174.11 286.565H185.48V297.935H174.11V286.565Z" fill="#ABB2FA" style="fill:#ABB2FA;fill:color(display-p3 0.6706 0.6990 0.9799);fill-opacity:1;"/>
<path d="M174.11 303.62H185.48V314.989H174.11V303.62Z" fill="#ABB2FA" style="fill:#ABB2FA;fill:color(display-p3 0.6706 0.6990 0.9799);fill-opacity:1;"/>
<path d="M174.11 320.675H185.48V332.044H174.11V320.675Z" fill="#ABB2FA" style="fill:#ABB2FA;fill:color(display-p3 0.6706 0.6990 0.9799);fill-opacity:1;"/>
<path d="M174.11 337.729H185.48V349.099H174.11V337.729Z" fill="#969FF4" style="fill:#969FF4;fill:color(display-p3 0.5882 0.6220 0.9566);fill-opacity:1;"/>
<path d="M174.11 354.784H185.48V366.153H174.11V354.784Z" fill="#969FF4" style="fill:#969FF4;fill:color(display-p3 0.5882 0.6220 0.9566);fill-opacity:1;"/>
<path d="M225.273 252.456H236.643V263.825H225.273V252.456Z" fill="#ABB2FA" style="fill:#ABB2FA;fill:color(display-p3 0.6706 0.6990 0.9799);fill-opacity:1;"/>
<path d="M225.273 269.51H236.643V280.88H225.273V269.51Z" fill="#ABB2FA" style="fill:#ABB2FA;fill:color(display-p3 0.6706 0.6990 0.9799);fill-opacity:1;"/>
<path d="M225.273 286.565H236.643V297.935H225.273V286.565Z" fill="#969FF4" style="fill:#969FF4;fill:color(display-p3 0.5882 0.6220 0.9566);fill-opacity:1;"/>
<path d="M225.273 303.62H236.643V314.989H225.273V303.62Z" fill="#969FF4" style="fill:#969FF4;fill:color(display-p3 0.5882 0.6220 0.9566);fill-opacity:1;"/>
<path d="M225.273 320.675H236.643V332.044H225.273V320.675Z" fill="#969FF4" style="fill:#969FF4;fill:color(display-p3 0.5882 0.6220 0.9566);fill-opacity:1;"/>
<path d="M225.273 337.729H236.643V349.099H225.273V337.729Z" fill="#969FF4" style="fill:#969FF4;fill:color(display-p3 0.5882 0.6220 0.9566);fill-opacity:1;"/>
<path d="M225.273 354.784H236.643V366.153H225.273V354.784Z" fill="#969FF4" style="fill:#969FF4;fill:color(display-p3 0.5882 0.6220 0.9566);fill-opacity:1;"/>
<path d="M191.164 252.456H202.534V263.825H191.164V252.456Z" fill="#B0B7FF" style="fill:#B0B7FF;fill:color(display-p3 0.6897 0.7182 1.0000);fill-opacity:1;"/>
<path d="M191.164 269.51H202.534V280.88H191.164V269.51Z" fill="#ABB2FA" style="fill:#ABB2FA;fill:color(display-p3 0.6706 0.6990 0.9799);fill-opacity:1;"/>
<path d="M191.164 286.565H202.534V297.935H191.164V286.565Z" fill="#ABB2FA" style="fill:#ABB2FA;fill:color(display-p3 0.6706 0.6990 0.9799);fill-opacity:1;"/>
<path d="M191.164 303.62H202.534V314.989H191.164V303.62Z" fill="#ABB2FA" style="fill:#ABB2FA;fill:color(display-p3 0.6706 0.6990 0.9799);fill-opacity:1;"/>
<path d="M191.164 320.675H202.534V332.044H191.164V320.675Z" fill="#969FF4" style="fill:#969FF4;fill:color(display-p3 0.5882 0.6220 0.9566);fill-opacity:1;"/>
<path d="M191.164 337.729H202.534V349.099H191.164V337.729Z" fill="#969FF4" style="fill:#969FF4;fill:color(display-p3 0.5882 0.6220 0.9566);fill-opacity:1;"/>
<path d="M191.164 354.784H202.534V366.153H191.164V354.784Z" fill="#969FF4" style="fill:#969FF4;fill:color(display-p3 0.5882 0.6220 0.9566);fill-opacity:1;"/>
<path d="M242.328 252.456H253.697V263.825H242.328V252.456Z" fill="#ABB2FA" style="fill:#ABB2FA;fill:color(display-p3 0.6706 0.6990 0.9799);fill-opacity:1;"/>
<path d="M242.328 269.51H253.697V280.88H242.328V269.51Z" fill="#969FF4" style="fill:#969FF4;fill:color(display-p3 0.5882 0.6220 0.9566);fill-opacity:1;"/>
<path d="M242.328 286.565H253.697V297.935H242.328V286.565Z" fill="#969FF4" style="fill:#969FF4;fill:color(display-p3 0.5882 0.6220 0.9566);fill-opacity:1;"/>
<path d="M242.328 303.62H253.697V314.989H242.328V303.62Z" fill="#969FF4" style="fill:#969FF4;fill:color(display-p3 0.5882 0.6220 0.9566);fill-opacity:1;"/>
<path d="M242.328 320.675H253.697V332.044H242.328V320.675Z" fill="#969FF4" style="fill:#969FF4;fill:color(display-p3 0.5882 0.6220 0.9566);fill-opacity:1;"/>
<path d="M242.328 337.729H253.697V349.099H242.328V337.729Z" fill="#969FF4" style="fill:#969FF4;fill:color(display-p3 0.5882 0.6220 0.9566);fill-opacity:1;"/>
<path d="M242.328 354.784H253.697V366.153H242.328V354.784Z" fill="#969FF4" style="fill:#969FF4;fill:color(display-p3 0.5882 0.6220 0.9566);fill-opacity:1;"/>
<path d="M259.383 252.456H270.753V263.825H259.383V252.456Z" fill="#969FF4" style="fill:#969FF4;fill:color(display-p3 0.5882 0.6220 0.9566);fill-opacity:1;"/>
<path d="M259.383 269.51H270.753V280.88H259.383V269.51Z" fill="#969FF4" style="fill:#969FF4;fill:color(display-p3 0.5882 0.6220 0.9566);fill-opacity:1;"/>
<path d="M259.383 286.565H270.753V297.935H259.383V286.565Z" fill="#969FF4" style="fill:#969FF4;fill:color(display-p3 0.5882 0.6220 0.9566);fill-opacity:1;"/>
<path d="M259.383 303.62H270.753V314.989H259.383V303.62Z" fill="#969FF4" style="fill:#969FF4;fill:color(display-p3 0.5882 0.6220 0.9566);fill-opacity:1;"/>
<path d="M259.383 320.675H270.753V332.044H259.383V320.675Z" fill="#969FF4" style="fill:#969FF4;fill:color(display-p3 0.5882 0.6220 0.9566);fill-opacity:1;"/>
<path d="M259.383 337.729H270.753V349.099H259.383V337.729Z" fill="#969FF4" style="fill:#969FF4;fill:color(display-p3 0.5882 0.6220 0.9566);fill-opacity:1;"/>
<path d="M259.383 354.784H270.753V366.153H259.383V354.784Z" fill="#969FF4" style="fill:#969FF4;fill:color(display-p3 0.5882 0.6220 0.9566);fill-opacity:1;"/>
<path d="M139.988 460.516H157.91C161.274 460.516 163.903 461.463 165.798 463.358C167.731 465.253 168.698 467.785 168.698 470.956C168.698 472.464 168.485 473.759 168.06 474.842C167.635 475.886 167.093 476.756 166.436 477.452C165.779 478.109 165.025 478.612 164.174 478.96C163.323 479.269 162.492 479.463 161.68 479.54V479.888C162.492 479.927 163.381 480.12 164.348 480.468C165.353 480.816 166.281 481.377 167.132 482.15C167.983 482.885 168.698 483.851 169.278 485.05C169.858 486.21 170.148 487.641 170.148 489.342C170.148 490.966 169.877 492.493 169.336 493.924C168.833 495.355 168.118 496.592 167.19 497.636C166.262 498.68 165.16 499.511 163.884 500.13C162.608 500.71 161.216 501 159.708 501H139.988V460.516ZM146.542 495.374H157.794C159.495 495.374 160.829 494.929 161.796 494.04C162.763 493.151 163.246 491.875 163.246 490.212V488.24C163.246 486.577 162.763 485.301 161.796 484.412C160.829 483.523 159.495 483.078 157.794 483.078H146.542V495.374ZM146.542 477.626H156.692C158.316 477.626 159.573 477.22 160.462 476.408C161.351 475.557 161.796 474.359 161.796 472.812V470.956C161.796 469.409 161.351 468.23 160.462 467.418C159.573 466.567 158.316 466.142 156.692 466.142H146.542V477.626ZM191.966 496.012H191.734C191.464 496.747 191.096 497.462 190.632 498.158C190.207 498.854 189.646 499.473 188.95 500.014C188.293 500.517 187.481 500.923 186.514 501.232C185.586 501.541 184.504 501.696 183.266 501.696C180.134 501.696 177.698 500.691 175.958 498.68C174.257 496.669 173.406 493.789 173.406 490.038V470.84H179.728V489.226C179.728 493.905 181.662 496.244 185.528 496.244C186.34 496.244 187.133 496.147 187.906 495.954C188.68 495.722 189.356 495.393 189.936 494.968C190.555 494.543 191.038 494.001 191.386 493.344C191.773 492.687 191.966 491.913 191.966 491.024V470.84H198.288V501H191.966V496.012ZM206.471 465.446C205.156 465.446 204.19 465.137 203.571 464.518C202.991 463.899 202.701 463.107 202.701 462.14V461.154C202.701 460.187 202.991 459.395 203.571 458.776C204.19 458.157 205.156 457.848 206.471 457.848C207.786 457.848 208.733 458.157 209.313 458.776C209.893 459.395 210.183 460.187 210.183 461.154V462.14C210.183 463.107 209.893 463.899 209.313 464.518C208.733 465.137 207.786 465.446 206.471 465.446ZM203.281 470.84H209.603V501H203.281V470.84ZM221.009 501C218.843 501 217.219 500.459 216.137 499.376C215.093 498.255 214.571 496.708 214.571 494.736V458.08H220.893V495.838H225.069V501H221.009ZM246.016 496.012H245.726C245.068 497.791 243.986 499.183 242.478 500.188C241.008 501.193 239.268 501.696 237.258 501.696C233.43 501.696 230.472 500.323 228.384 497.578C226.296 494.794 225.252 490.908 225.252 485.92C225.252 480.932 226.296 477.065 228.384 474.32C230.472 471.536 233.43 470.144 237.258 470.144C239.268 470.144 241.008 470.647 242.478 471.652C243.986 472.619 245.068 474.011 245.726 475.828H246.016V458.08H252.338V501H246.016V496.012ZM239.172 496.244C241.105 496.244 242.729 495.78 244.044 494.852C245.358 493.885 246.016 492.629 246.016 491.082V480.758C246.016 479.211 245.358 477.974 244.044 477.046C242.729 476.079 241.105 475.596 239.172 475.596C236.968 475.596 235.208 476.311 233.894 477.742C232.579 479.134 231.922 480.99 231.922 483.31V488.53C231.922 490.85 232.579 492.725 233.894 494.156C235.208 495.548 236.968 496.244 239.172 496.244ZM289.059 501C287.396 501 286.12 500.536 285.231 499.608C284.342 498.641 283.8 497.423 283.607 495.954H283.317C282.737 497.849 281.674 499.279 280.127 500.246C278.58 501.213 276.705 501.696 274.501 501.696C271.369 501.696 268.952 500.884 267.251 499.26C265.588 497.636 264.757 495.451 264.757 492.706C264.757 489.69 265.84 487.428 268.005 485.92C270.209 484.412 273.418 483.658 277.633 483.658H283.085V481.106C283.085 479.25 282.582 477.819 281.577 476.814C280.572 475.809 279.006 475.306 276.879 475.306C275.1 475.306 273.65 475.693 272.529 476.466C271.408 477.239 270.46 478.225 269.687 479.424L265.917 476.002C266.922 474.301 268.334 472.909 270.151 471.826C271.968 470.705 274.346 470.144 277.285 470.144C281.19 470.144 284.187 471.053 286.275 472.87C288.363 474.687 289.407 477.297 289.407 480.7V495.838H292.597V501H289.059ZM276.299 496.882C278.271 496.882 279.895 496.457 281.171 495.606C282.447 494.717 283.085 493.537 283.085 492.068V487.718H277.749C273.38 487.718 271.195 489.071 271.195 491.778V492.822C271.195 494.175 271.64 495.2 272.529 495.896C273.457 496.553 274.714 496.882 276.299 496.882ZM321.181 503.842C321.181 506.974 319.982 509.333 317.585 510.918C315.188 512.503 311.282 513.296 305.869 513.296C303.394 513.296 301.287 513.122 299.547 512.774C297.846 512.465 296.434 512.001 295.313 511.382C294.23 510.763 293.438 510.009 292.935 509.12C292.432 508.231 292.181 507.206 292.181 506.046C292.181 504.383 292.626 503.088 293.515 502.16C294.443 501.232 295.719 500.594 297.343 500.246V499.608C295.062 498.873 293.921 497.327 293.921 494.968C293.921 493.421 294.443 492.242 295.487 491.43C296.531 490.579 297.788 489.98 299.257 489.632V489.4C297.478 488.549 296.106 487.37 295.139 485.862C294.211 484.315 293.747 482.517 293.747 480.468C293.747 477.375 294.772 474.881 296.821 472.986C298.909 471.091 301.886 470.144 305.753 470.144C307.88 470.144 309.697 470.453 311.205 471.072V470.26C311.205 468.907 311.514 467.863 312.133 467.128C312.79 466.355 313.796 465.968 315.149 465.968H319.789V471.072H313.641V472.29C314.994 473.179 316.038 474.339 316.773 475.77C317.508 477.162 317.875 478.728 317.875 480.468C317.875 483.523 316.831 485.997 314.743 487.892C312.655 489.748 309.678 490.676 305.811 490.676C304.342 490.676 303.027 490.521 301.867 490.212C301.094 490.483 300.417 490.869 299.837 491.372C299.257 491.836 298.967 492.455 298.967 493.228C298.967 494.04 299.334 494.62 300.069 494.968C300.804 495.316 301.848 495.49 303.201 495.49H310.625C314.337 495.49 317.024 496.244 318.687 497.752C320.35 499.221 321.181 501.251 321.181 503.842ZM315.265 504.538C315.265 503.494 314.859 502.663 314.047 502.044C313.274 501.425 311.843 501.116 309.755 501.116H299.547C298.155 501.928 297.459 503.088 297.459 504.596C297.459 505.833 297.942 506.819 298.909 507.554C299.914 508.327 301.596 508.714 303.955 508.714H307.899C312.81 508.714 315.265 507.322 315.265 504.538ZM305.811 486.094C307.667 486.094 309.098 485.688 310.103 484.876C311.147 484.025 311.669 482.73 311.669 480.99V479.83C311.669 478.09 311.147 476.814 310.103 476.002C309.098 475.151 307.667 474.726 305.811 474.726C303.955 474.726 302.505 475.151 301.461 476.002C300.456 476.814 299.953 478.09 299.953 479.83V480.99C299.953 482.73 300.456 484.025 301.461 484.876C302.505 485.688 303.955 486.094 305.811 486.094ZM333.317 501.696C331.152 501.696 329.219 501.329 327.517 500.594C325.816 499.859 324.366 498.815 323.167 497.462C321.969 496.07 321.041 494.407 320.383 492.474C319.765 490.502 319.455 488.317 319.455 485.92C319.455 483.523 319.765 481.357 320.383 479.424C321.041 477.452 321.969 475.789 323.167 474.436C324.366 473.044 325.816 471.981 327.517 471.246C329.219 470.511 331.152 470.144 333.317 470.144C335.521 470.144 337.455 470.531 339.117 471.304C340.819 472.077 342.23 473.16 343.351 474.552C344.473 475.905 345.304 477.491 345.845 479.308C346.425 481.125 346.715 483.078 346.715 485.166V487.544H326.009V488.53C326.009 490.85 326.686 492.764 328.039 494.272C329.431 495.741 331.403 496.476 333.955 496.476C335.811 496.476 337.377 496.07 338.653 495.258C339.929 494.446 341.012 493.344 341.901 491.952L345.613 495.606C344.492 497.462 342.868 498.951 340.741 500.072C338.615 501.155 336.14 501.696 333.317 501.696ZM333.317 475.074C332.235 475.074 331.229 475.267 330.301 475.654C329.412 476.041 328.639 476.582 327.981 477.278C327.363 477.974 326.879 478.805 326.531 479.772C326.183 480.739 326.009 481.802 326.009 482.962V483.368H340.045V482.788C340.045 480.468 339.446 478.612 338.247 477.22C337.049 475.789 335.405 475.074 333.317 475.074ZM349.654 501V470.84H355.976V475.828H356.266C356.923 474.204 357.909 472.851 359.224 471.768C360.577 470.685 362.414 470.144 364.734 470.144C367.827 470.144 370.225 471.169 371.926 473.218C373.666 475.229 374.536 478.109 374.536 481.86V501H368.214V482.672C368.214 477.955 366.319 475.596 362.53 475.596C361.718 475.596 360.906 475.712 360.094 475.944C359.321 476.137 358.625 476.447 358.006 476.872C357.387 477.297 356.885 477.839 356.498 478.496C356.15 479.153 355.976 479.927 355.976 480.816V501H349.654ZM387.59 501C385.386 501 383.724 500.439 382.602 499.318C381.481 498.158 380.92 496.534 380.92 494.446V476.002H376.222V470.84H378.774C379.818 470.84 380.534 470.608 380.92 470.144C381.346 469.68 381.558 468.926 381.558 467.882V462.604H387.242V470.84H393.564V476.002H387.242V495.838H393.1V501H387.59ZM405.932 501.696C403.071 501.696 400.673 501.193 398.74 500.188C396.807 499.183 395.125 497.791 393.694 496.012L397.754 492.3C398.875 493.653 400.113 494.717 401.466 495.49C402.858 496.225 404.463 496.592 406.28 496.592C408.136 496.592 409.509 496.244 410.398 495.548C411.326 494.813 411.79 493.808 411.79 492.532C411.79 491.565 411.461 490.753 410.804 490.096C410.185 489.4 409.083 488.955 407.498 488.762L404.714 488.414C401.621 488.027 399.185 487.138 397.406 485.746C395.666 484.315 394.796 482.208 394.796 479.424C394.796 477.955 395.067 476.659 395.608 475.538C396.149 474.378 396.903 473.411 397.87 472.638C398.875 471.826 400.055 471.207 401.408 470.782C402.8 470.357 404.327 470.144 405.99 470.144C408.697 470.144 410.901 470.569 412.602 471.42C414.342 472.271 415.889 473.45 417.242 474.958L413.356 478.67C412.583 477.742 411.558 476.949 410.282 476.292C409.045 475.596 407.614 475.248 405.99 475.248C404.25 475.248 402.955 475.596 402.104 476.292C401.292 476.988 400.886 477.897 400.886 479.018C400.886 480.178 401.253 481.048 401.988 481.628C402.723 482.208 403.902 482.633 405.526 482.904L408.31 483.252C411.635 483.755 414.052 484.741 415.56 486.21C417.107 487.641 417.88 489.574 417.88 492.01C417.88 493.479 417.59 494.813 417.01 496.012C416.469 497.172 415.676 498.177 414.632 499.028C413.588 499.879 412.331 500.536 410.862 501C409.393 501.464 407.749 501.696 405.932 501.696ZM432.175 476.002H427.593V470.84H432.175V465.852C432.175 463.416 432.813 461.521 434.089 460.168C435.365 458.776 437.279 458.08 439.831 458.08H444.819V463.242H438.497V470.84H444.819V476.002H438.497V501H432.175V476.002ZM468.358 501C466.696 501 465.42 500.536 464.53 499.608C463.641 498.641 463.1 497.423 462.906 495.954H462.616C462.036 497.849 460.973 499.279 459.426 500.246C457.88 501.213 456.004 501.696 453.8 501.696C450.668 501.696 448.252 500.884 446.55 499.26C444.888 497.636 444.056 495.451 444.056 492.706C444.056 489.69 445.139 487.428 447.304 485.92C449.508 484.412 452.718 483.658 456.932 483.658H462.384V481.106C462.384 479.25 461.882 477.819 460.876 476.814C459.871 475.809 458.305 475.306 456.178 475.306C454.4 475.306 452.95 475.693 451.828 476.466C450.707 477.239 449.76 478.225 448.986 479.424L445.216 476.002C446.222 474.301 447.633 472.909 449.45 471.826C451.268 470.705 453.646 470.144 456.584 470.144C460.49 470.144 463.486 471.053 465.574 472.87C467.662 474.687 468.706 477.297 468.706 480.7V495.838H471.896V501H468.358ZM455.598 496.882C457.57 496.882 459.194 496.457 460.47 495.606C461.746 494.717 462.384 493.537 462.384 492.068V487.718H457.048C452.679 487.718 450.494 489.071 450.494 491.778V492.822C450.494 494.175 450.939 495.2 451.828 495.896C452.756 496.553 454.013 496.882 455.598 496.882ZM483.602 501.696C480.741 501.696 478.344 501.193 476.41 500.188C474.477 499.183 472.795 497.791 471.364 496.012L475.424 492.3C476.546 493.653 477.783 494.717 479.136 495.49C480.528 496.225 482.133 496.592 483.95 496.592C485.806 496.592 487.179 496.244 488.068 495.548C488.996 494.813 489.46 493.808 489.46 492.532C489.46 491.565 489.132 490.753 488.474 490.096C487.856 489.4 486.754 488.955 485.168 488.762L482.384 488.414C479.291 488.027 476.855 487.138 475.076 485.746C473.336 484.315 472.466 482.208 472.466 479.424C472.466 477.955 472.737 476.659 473.278 475.538C473.82 474.378 474.574 473.411 475.54 472.638C476.546 471.826 477.725 471.207 479.078 470.782C480.47 470.357 481.998 470.144 483.66 470.144C486.367 470.144 488.571 470.569 490.272 471.42C492.012 472.271 493.559 473.45 494.912 474.958L491.026 478.67C490.253 477.742 489.228 476.949 487.952 476.292C486.715 475.596 485.284 475.248 483.66 475.248C481.92 475.248 480.625 475.596 479.774 476.292C478.962 476.988 478.556 477.897 478.556 479.018C478.556 480.178 478.924 481.048 479.658 481.628C480.393 482.208 481.572 482.633 483.196 482.904L485.98 483.252C489.306 483.755 491.722 484.741 493.23 486.21C494.777 487.641 495.55 489.574 495.55 492.01C495.55 493.479 495.26 494.813 494.68 496.012C494.139 497.172 493.346 498.177 492.302 499.028C491.258 499.879 490.002 500.536 488.532 501C487.063 501.464 485.42 501.696 483.602 501.696ZM506.588 501C504.384 501 502.721 500.439 501.6 499.318C500.479 498.158 499.918 496.534 499.918 494.446V476.002H495.22V470.84H497.772C498.816 470.84 499.531 470.608 499.918 470.144C500.343 469.68 500.556 468.926 500.556 467.882V462.604H506.24V470.84H512.562V476.002H506.24V495.838H512.098V501H506.588ZM526.965 501.696C524.8 501.696 522.866 501.329 521.165 500.594C519.464 499.859 518.014 498.815 516.815 497.462C515.616 496.07 514.688 494.407 514.031 492.474C513.412 490.502 513.103 488.317 513.103 485.92C513.103 483.523 513.412 481.357 514.031 479.424C514.688 477.452 515.616 475.789 516.815 474.436C518.014 473.044 519.464 471.981 521.165 471.246C522.866 470.511 524.8 470.144 526.965 470.144C529.169 470.144 531.102 470.531 532.765 471.304C534.466 472.077 535.878 473.16 536.999 474.552C538.12 475.905 538.952 477.491 539.493 479.308C540.073 481.125 540.363 483.078 540.363 485.166V487.544H519.657V488.53C519.657 490.85 520.334 492.764 521.687 494.272C523.079 495.741 525.051 496.476 527.603 496.476C529.459 496.476 531.025 496.07 532.301 495.258C533.577 494.446 534.66 493.344 535.549 491.952L539.261 495.606C538.14 497.462 536.516 498.951 534.389 500.072C532.262 501.155 529.788 501.696 526.965 501.696ZM526.965 475.074C525.882 475.074 524.877 475.267 523.949 475.654C523.06 476.041 522.286 476.582 521.629 477.278C521.01 477.974 520.527 478.805 520.179 479.772C519.831 480.739 519.657 481.802 519.657 482.962V483.368H533.693V482.788C533.693 480.468 533.094 478.612 531.895 477.22C530.696 475.789 529.053 475.074 526.965 475.074ZM543.301 501V470.84H549.623V476.64H549.913C550.339 475.093 551.228 473.74 552.581 472.58C553.935 471.42 555.81 470.84 558.207 470.84H559.889V476.93H557.395C554.882 476.93 552.949 477.336 551.595 478.148C550.281 478.96 549.623 480.159 549.623 481.744V501H543.301ZM560.686 492.938C562.117 492.938 563.18 493.305 563.876 494.04C564.572 494.775 564.92 495.722 564.92 496.882V497.81C564.92 499.705 564.398 501.677 563.354 503.726C562.349 505.814 560.976 507.573 559.236 509.004H554.538C555.775 507.767 556.8 506.568 557.612 505.408C558.424 504.248 559.043 502.953 559.468 501.522C558.463 501.329 557.709 500.903 557.206 500.246C556.703 499.55 556.452 498.738 556.452 497.81V496.882C556.452 495.722 556.8 494.775 557.496 494.04C558.192 493.305 559.255 492.938 560.686 492.938ZM601.307 501C599.645 501 598.369 500.536 597.479 499.608C596.59 498.641 596.049 497.423 595.855 495.954H595.565C594.985 497.849 593.922 499.279 592.375 500.246C590.829 501.213 588.953 501.696 586.749 501.696C583.617 501.696 581.201 500.884 579.499 499.26C577.837 497.636 577.005 495.451 577.005 492.706C577.005 489.69 578.088 487.428 580.253 485.92C582.457 484.412 585.667 483.658 589.881 483.658H595.333V481.106C595.333 479.25 594.831 477.819 593.825 476.814C592.82 475.809 591.254 475.306 589.127 475.306C587.349 475.306 585.899 475.693 584.777 476.466C583.656 477.239 582.709 478.225 581.935 479.424L578.165 476.002C579.171 474.301 580.582 472.909 582.399 471.826C584.217 470.705 586.595 470.144 589.533 470.144C593.439 470.144 596.435 471.053 598.523 472.87C600.611 474.687 601.655 477.297 601.655 480.7V495.838H604.845V501H601.307ZM588.547 496.882C590.519 496.882 592.143 496.457 593.419 495.606C594.695 494.717 595.333 493.537 595.333 492.068V487.718H589.997C585.628 487.718 583.443 489.071 583.443 491.778V492.822C583.443 494.175 583.888 495.2 584.777 495.896C585.705 496.553 586.962 496.882 588.547 496.882ZM606.981 501V470.84H613.303V475.828H613.593C614.251 474.204 615.237 472.851 616.551 471.768C617.905 470.685 619.741 470.144 622.061 470.144C625.155 470.144 627.552 471.169 629.253 473.218C630.993 475.229 631.863 478.109 631.863 481.86V501H625.541V482.672C625.541 477.955 623.647 475.596 619.857 475.596C619.045 475.596 618.233 475.712 617.421 475.944C616.648 476.137 615.952 476.447 615.333 476.872C614.715 477.297 614.212 477.839 613.825 478.496C613.477 479.153 613.303 479.927 613.303 480.816V501H606.981ZM655.532 496.012H655.242C654.585 497.791 653.502 499.183 651.994 500.188C650.525 501.193 648.785 501.696 646.774 501.696C642.946 501.696 639.988 500.323 637.9 497.578C635.812 494.794 634.768 490.908 634.768 485.92C634.768 480.932 635.812 477.065 637.9 474.32C639.988 471.536 642.946 470.144 646.774 470.144C648.785 470.144 650.525 470.647 651.994 471.652C653.502 472.619 654.585 474.011 655.242 475.828H655.532V458.08H661.854V501H655.532V496.012ZM648.688 496.244C650.621 496.244 652.245 495.78 653.56 494.852C654.875 493.885 655.532 492.629 655.532 491.082V480.758C655.532 479.211 654.875 477.974 653.56 477.046C652.245 476.079 650.621 475.596 648.688 475.596C646.484 475.596 644.725 476.311 643.41 477.742C642.095 479.134 641.438 480.99 641.438 483.31V488.53C641.438 490.85 642.095 492.725 643.41 494.156C644.725 495.548 646.484 496.244 648.688 496.244ZM695.443 496.012H695.153C694.496 497.791 693.413 499.183 691.905 500.188C690.436 501.193 688.696 501.696 686.685 501.696C682.857 501.696 679.899 500.323 677.811 497.578C675.723 494.794 674.679 490.908 674.679 485.92C674.679 480.932 675.723 477.065 677.811 474.32C679.899 471.536 682.857 470.144 686.685 470.144C688.696 470.144 690.436 470.647 691.905 471.652C693.413 472.619 694.496 474.011 695.153 475.828H695.443V458.08H701.765V501H695.443V496.012ZM688.599 496.244C690.532 496.244 692.156 495.78 693.471 494.852C694.786 493.885 695.443 492.629 695.443 491.082V480.758C695.443 479.211 694.786 477.974 693.471 477.046C692.156 476.079 690.532 475.596 688.599 475.596C686.395 475.596 684.636 476.311 683.321 477.742C682.006 479.134 681.349 480.99 681.349 483.31V488.53C681.349 490.85 682.006 492.725 683.321 494.156C684.636 495.548 686.395 496.244 688.599 496.244ZM718.573 501.696C716.408 501.696 714.475 501.329 712.773 500.594C711.072 499.859 709.622 498.815 708.423 497.462C707.225 496.07 706.297 494.407 705.639 492.474C705.021 490.502 704.711 488.317 704.711 485.92C704.711 483.523 705.021 481.357 705.639 479.424C706.297 477.452 707.225 475.789 708.423 474.436C709.622 473.044 711.072 471.981 712.773 471.246C714.475 470.511 716.408 470.144 718.573 470.144C720.777 470.144 722.711 470.531 724.373 471.304C726.075 472.077 727.486 473.16 728.607 474.552C729.729 475.905 730.56 477.491 731.101 479.308C731.681 481.125 731.971 483.078 731.971 485.166V487.544H711.265V488.53C711.265 490.85 711.942 492.764 713.295 494.272C714.687 495.741 716.659 496.476 719.211 496.476C721.067 496.476 722.633 496.07 723.909 495.258C725.185 494.446 726.268 493.344 727.157 491.952L730.869 495.606C729.748 497.462 728.124 498.951 725.997 500.072C723.871 501.155 721.396 501.696 718.573 501.696ZM718.573 475.074C717.491 475.074 716.485 475.267 715.557 475.654C714.668 476.041 713.895 476.582 713.237 477.278C712.619 477.974 712.135 478.805 711.787 479.772C711.439 480.739 711.265 481.802 711.265 482.962V483.368H725.301V482.788C725.301 480.468 724.702 478.612 723.503 477.22C722.305 475.789 720.661 475.074 718.573 475.074ZM741.348 501C739.183 501 737.559 500.459 736.476 499.376C735.432 498.255 734.91 496.708 734.91 494.736V458.08H741.232V495.838H745.408V501H741.348ZM750.579 465.446C749.264 465.446 748.298 465.137 747.679 464.518C747.099 463.899 746.809 463.107 746.809 462.14V461.154C746.809 460.187 747.099 459.395 747.679 458.776C748.298 458.157 749.264 457.848 750.579 457.848C751.894 457.848 752.841 458.157 753.421 458.776C754.001 459.395 754.291 460.187 754.291 461.154V462.14C754.291 463.107 754.001 463.899 753.421 464.518C752.841 465.137 751.894 465.446 750.579 465.446ZM747.389 470.84H753.711V501H747.389V470.84ZM765.233 501L754.967 470.84H761.231L765.813 484.586L768.887 495.142H769.235L772.309 484.586L777.007 470.84H783.039L772.657 501H765.233ZM795.677 501.696C793.512 501.696 791.578 501.329 789.877 500.594C788.176 499.859 786.726 498.815 785.527 497.462C784.328 496.07 783.4 494.407 782.743 492.474C782.124 490.502 781.815 488.317 781.815 485.92C781.815 483.523 782.124 481.357 782.743 479.424C783.4 477.452 784.328 475.789 785.527 474.436C786.726 473.044 788.176 471.981 789.877 471.246C791.578 470.511 793.512 470.144 795.677 470.144C797.881 470.144 799.814 470.531 801.477 471.304C803.178 472.077 804.59 473.16 805.711 474.552C806.832 475.905 807.664 477.491 808.205 479.308C808.785 481.125 809.075 483.078 809.075 485.166V487.544H788.369V488.53C788.369 490.85 789.046 492.764 790.399 494.272C791.791 495.741 793.763 496.476 796.315 496.476C798.171 496.476 799.737 496.07 801.013 495.258C802.289 494.446 803.372 493.344 804.261 491.952L807.973 495.606C806.852 497.462 805.228 498.951 803.101 500.072C800.974 501.155 798.5 501.696 795.677 501.696ZM795.677 475.074C794.594 475.074 793.589 475.267 792.661 475.654C791.772 476.041 790.998 476.582 790.341 477.278C789.722 477.974 789.239 478.805 788.891 479.772C788.543 480.739 788.369 481.802 788.369 482.962V483.368H802.405V482.788C802.405 480.468 801.806 478.612 800.607 477.22C799.408 475.789 797.765 475.074 795.677 475.074ZM812.014 501V470.84H818.336V476.64H818.626C819.051 475.093 819.94 473.74 821.294 472.58C822.647 471.42 824.522 470.84 826.92 470.84H828.602V476.93H826.108C823.594 476.93 821.661 477.336 820.308 478.148C818.993 478.96 818.336 480.159 818.336 481.744V501H812.014ZM848.156 501C845.952 501 844.289 500.439 843.168 499.318C842.046 498.158 841.486 496.534 841.486 494.446V476.002H836.788V470.84H839.34C840.384 470.84 841.099 470.608 841.486 470.144C841.911 469.68 842.124 468.926 842.124 467.882V462.604H847.808V470.84H854.13V476.002H847.808V495.838H853.666V501H848.156ZM856.927 458.08H863.249V475.828H863.539C864.197 474.204 865.183 472.851 866.497 471.768C867.851 470.685 869.687 470.144 872.007 470.144C875.101 470.144 877.498 471.169 879.199 473.218C880.939 475.229 881.809 478.109 881.809 481.86V501H875.487V482.614C875.487 477.935 873.593 475.596 869.803 475.596C868.991 475.596 868.179 475.712 867.367 475.944C866.594 476.137 865.898 476.447 865.279 476.872C864.661 477.297 864.158 477.839 863.771 478.496C863.423 479.153 863.249 479.907 863.249 480.758V501H856.927V458.08ZM898.344 501.696C896.179 501.696 894.245 501.329 892.544 500.594C890.843 499.859 889.393 498.815 888.194 497.462C886.995 496.07 886.067 494.407 885.41 492.474C884.791 490.502 884.482 488.317 884.482 485.92C884.482 483.523 884.791 481.357 885.41 479.424C886.067 477.452 886.995 475.789 888.194 474.436C889.393 473.044 890.843 471.981 892.544 471.246C894.245 470.511 896.179 470.144 898.344 470.144C900.548 470.144 902.481 470.531 904.144 471.304C905.845 472.077 907.257 473.16 908.378 474.552C909.499 475.905 910.331 477.491 910.872 479.308C911.452 481.125 911.742 483.078 911.742 485.166V487.544H891.036V488.53C891.036 490.85 891.713 492.764 893.066 494.272C894.458 495.741 896.43 496.476 898.982 496.476C900.838 496.476 902.404 496.07 903.68 495.258C904.956 494.446 906.039 493.344 906.928 491.952L910.64 495.606C909.519 497.462 907.895 498.951 905.768 500.072C903.641 501.155 901.167 501.696 898.344 501.696ZM898.344 475.074C897.261 475.074 896.256 475.267 895.328 475.654C894.439 476.041 893.665 476.582 893.008 477.278C892.389 477.974 891.906 478.805 891.558 479.772C891.21 480.739 891.036 481.802 891.036 482.962V483.368H905.072V482.788C905.072 480.468 904.473 478.612 903.274 477.22C902.075 475.789 900.432 475.074 898.344 475.074ZM914.68 501V470.84H921.002V475.828H921.292C921.602 475.055 921.969 474.32 922.394 473.624C922.858 472.928 923.4 472.329 924.018 471.826C924.676 471.285 925.43 470.879 926.28 470.608C927.17 470.299 928.194 470.144 929.354 470.144C931.404 470.144 933.221 470.647 934.806 471.652C936.392 472.657 937.552 474.204 938.286 476.292H938.46C939.002 474.591 940.046 473.141 941.592 471.942C943.139 470.743 945.13 470.144 947.566 470.144C950.582 470.144 952.922 471.169 954.584 473.218C956.247 475.229 957.078 478.109 957.078 481.86V501H950.756V482.614C950.756 480.294 950.312 478.554 949.422 477.394C948.533 476.195 947.122 475.596 945.188 475.596C944.376 475.596 943.603 475.712 942.868 475.944C942.134 476.137 941.476 476.447 940.896 476.872C940.355 477.297 939.91 477.839 939.562 478.496C939.214 479.153 939.04 479.907 939.04 480.758V501H932.718V482.614C932.718 477.935 930.882 475.596 927.208 475.596C926.435 475.596 925.662 475.712 924.888 475.944C924.154 476.137 923.496 476.447 922.916 476.872C922.336 477.297 921.872 477.839 921.524 478.496C921.176 479.153 921.002 479.907 921.002 480.758V501H914.68ZM971.414 501V470.84H977.736V476.64H978.026C978.451 475.093 979.341 473.74 980.694 472.58C982.047 471.42 983.923 470.84 986.32 470.84H988.002V476.93H985.508C982.995 476.93 981.061 477.336 979.708 478.148C978.393 478.96 977.736 480.159 977.736 481.744V501H971.414ZM1001.11 501.696C998.94 501.696 997.007 501.329 995.306 500.594C993.604 499.859 992.154 498.815 990.956 497.462C989.757 496.07 988.829 494.407 988.172 492.474C987.553 490.502 987.244 488.317 987.244 485.92C987.244 483.523 987.553 481.357 988.172 479.424C988.829 477.452 989.757 475.789 990.956 474.436C992.154 473.044 993.604 471.981 995.306 471.246C997.007 470.511 998.94 470.144 1001.11 470.144C1003.31 470.144 1005.24 470.531 1006.91 471.304C1008.61 472.077 1010.02 473.16 1011.14 474.552C1012.26 475.905 1013.09 477.491 1013.63 479.308C1014.21 481.125 1014.5 483.078 1014.5 485.166V487.544H993.798V488.53C993.798 490.85 994.474 492.764 995.828 494.272C997.22 495.741 999.192 496.476 1001.74 496.476C1003.6 496.476 1005.17 496.07 1006.44 495.258C1007.72 494.446 1008.8 493.344 1009.69 491.952L1013.4 495.606C1012.28 497.462 1010.66 498.951 1008.53 500.072C1006.4 501.155 1003.93 501.696 1001.11 501.696ZM1001.11 475.074C1000.02 475.074 999.018 475.267 998.09 475.654C997.2 476.041 996.427 476.582 995.77 477.278C995.151 477.974 994.668 478.805 994.32 479.772C993.972 480.739 993.798 481.802 993.798 482.962V483.368H1007.83V482.788C1007.83 480.468 1007.23 478.612 1006.04 477.22C1004.84 475.789 1003.19 475.074 1001.11 475.074ZM1023.88 501C1021.72 501 1020.09 500.459 1019.01 499.376C1017.96 498.255 1017.44 496.708 1017.44 494.736V458.08H1023.76V495.838H1027.94V501H1023.88ZM1033.11 465.446C1031.8 465.446 1030.83 465.137 1030.21 464.518C1029.63 463.899 1029.34 463.107 1029.34 462.14V461.154C1029.34 460.187 1029.63 459.395 1030.21 458.776C1030.83 458.157 1031.8 457.848 1033.11 457.848C1034.43 457.848 1035.37 458.157 1035.95 458.776C1036.53 459.395 1036.82 460.187 1036.82 461.154V462.14C1036.82 463.107 1036.53 463.899 1035.95 464.518C1035.37 465.137 1034.43 465.446 1033.11 465.446ZM1029.92 470.84H1036.24V501H1029.92V470.84ZM1063.31 501C1061.65 501 1060.37 500.536 1059.48 499.608C1058.59 498.641 1058.05 497.423 1057.86 495.954H1057.57C1056.99 497.849 1055.92 499.279 1054.38 500.246C1052.83 501.213 1050.96 501.696 1048.75 501.696C1045.62 501.696 1043.2 500.884 1041.5 499.26C1039.84 497.636 1039.01 495.451 1039.01 492.706C1039.01 489.69 1040.09 487.428 1042.26 485.92C1044.46 484.412 1047.67 483.658 1051.88 483.658H1057.34V481.106C1057.34 479.25 1056.83 477.819 1055.83 476.814C1054.82 475.809 1053.26 475.306 1051.13 475.306C1049.35 475.306 1047.9 475.693 1046.78 476.466C1045.66 477.239 1044.71 478.225 1043.94 479.424L1040.17 476.002C1041.17 474.301 1042.58 472.909 1044.4 471.826C1046.22 470.705 1048.6 470.144 1051.54 470.144C1055.44 470.144 1058.44 471.053 1060.53 472.87C1062.61 474.687 1063.66 477.297 1063.66 480.7V495.838H1066.85V501H1063.31ZM1050.55 496.882C1052.52 496.882 1054.15 496.457 1055.42 495.606C1056.7 494.717 1057.34 493.537 1057.34 492.068V487.718H1052C1047.63 487.718 1045.45 489.071 1045.45 491.778V492.822C1045.45 494.175 1045.89 495.2 1046.78 495.896C1047.71 496.553 1048.96 496.882 1050.55 496.882ZM1068.98 458.08H1075.31V475.828H1075.6C1076.25 474.011 1077.32 472.619 1078.79 471.652C1080.29 470.647 1082.05 470.144 1084.06 470.144C1087.89 470.144 1090.85 471.536 1092.94 474.32C1095.03 477.065 1096.07 480.932 1096.07 485.92C1096.07 490.908 1095.03 494.794 1092.94 497.578C1090.85 500.323 1087.89 501.696 1084.06 501.696C1082.05 501.696 1080.29 501.193 1078.79 500.188C1077.32 499.183 1076.25 497.791 1075.6 496.012H1075.31V501H1068.98V458.08ZM1082.15 496.244C1084.35 496.244 1086.11 495.548 1087.43 494.156C1088.74 492.725 1089.4 490.85 1089.4 488.53V483.31C1089.4 480.99 1088.74 479.134 1087.43 477.742C1086.11 476.311 1084.35 475.596 1082.15 475.596C1080.22 475.596 1078.59 476.079 1077.28 477.046C1075.96 477.974 1075.31 479.211 1075.31 480.758V491.082C1075.31 492.629 1075.96 493.885 1077.28 494.852C1078.59 495.78 1080.22 496.244 1082.15 496.244ZM1105.69 501C1103.52 501 1101.9 500.459 1100.81 499.376C1099.77 498.255 1099.25 496.708 1099.25 494.736V458.08H1105.57V495.838H1109.75V501H1105.69ZM1129.78 470.84H1135.87L1123.16 506.974C1122.82 507.979 1122.41 508.83 1121.95 509.526C1121.52 510.261 1121 510.841 1120.38 511.266C1119.8 511.73 1119.08 512.059 1118.23 512.252C1117.38 512.484 1116.38 512.6 1115.22 512.6H1111.56V507.438H1116.67L1118.41 502.334L1107.45 470.84H1113.77L1119.8 488.588L1121.54 495.142H1121.83L1123.74 488.588L1129.78 470.84ZM1155.01 501C1152.8 501 1151.14 500.439 1150.02 499.318C1148.9 498.158 1148.34 496.534 1148.34 494.446V476.002H1143.64V470.84H1146.19C1147.23 470.84 1147.95 470.608 1148.34 470.144C1148.76 469.68 1148.97 468.926 1148.97 467.882V462.604H1154.66V470.84H1160.98V476.002H1154.66V495.838H1160.52V501H1155.01ZM1175.38 501.696C1173.29 501.696 1171.38 501.329 1169.64 500.594C1167.94 499.859 1166.49 498.815 1165.29 497.462C1164.09 496.07 1163.16 494.407 1162.51 492.474C1161.85 490.502 1161.52 488.317 1161.52 485.92C1161.52 483.523 1161.85 481.357 1162.51 479.424C1163.16 477.452 1164.09 475.789 1165.29 474.436C1166.49 473.044 1167.94 471.981 1169.64 471.246C1171.38 470.511 1173.29 470.144 1175.38 470.144C1177.47 470.144 1179.36 470.511 1181.07 471.246C1182.81 471.981 1184.28 473.044 1185.47 474.436C1186.67 475.789 1187.6 477.452 1188.26 479.424C1188.92 481.357 1189.24 483.523 1189.24 485.92C1189.24 488.317 1188.92 490.502 1188.26 492.474C1187.6 494.407 1186.67 496.07 1185.47 497.462C1184.28 498.815 1182.81 499.859 1181.07 500.594C1179.36 501.329 1177.47 501.696 1175.38 501.696ZM1175.38 496.476C1177.55 496.476 1179.29 495.819 1180.6 494.504C1181.92 493.151 1182.57 491.14 1182.57 488.472V483.368C1182.57 480.7 1181.92 478.709 1180.6 477.394C1179.29 476.041 1177.55 475.364 1175.38 475.364C1173.22 475.364 1171.48 476.041 1170.16 477.394C1168.85 478.709 1168.19 480.7 1168.19 483.368V488.472C1168.19 491.14 1168.85 493.151 1170.16 494.504C1171.48 495.819 1173.22 496.476 1175.38 496.476ZM1201.88 470.84H1208.2V475.828H1208.49C1209.14 474.011 1210.21 472.619 1211.68 471.652C1213.19 470.647 1214.94 470.144 1216.96 470.144C1220.78 470.144 1223.74 471.536 1225.83 474.32C1227.92 477.065 1228.96 480.932 1228.96 485.92C1228.96 490.908 1227.92 494.794 1225.83 497.578C1223.74 500.323 1220.78 501.696 1216.96 501.696C1214.94 501.696 1213.19 501.193 1211.68 500.188C1210.21 499.183 1209.14 497.791 1208.49 496.012H1208.2V512.6H1201.88V470.84ZM1215.04 496.244C1217.25 496.244 1219 495.548 1220.32 494.156C1221.63 492.725 1222.29 490.85 1222.29 488.53V483.31C1222.29 480.99 1221.63 479.134 1220.32 477.742C1219 476.311 1217.25 475.596 1215.04 475.596C1213.11 475.596 1211.48 476.079 1210.17 477.046C1208.85 477.974 1208.2 479.211 1208.2 480.758V491.082C1208.2 492.629 1208.85 493.885 1210.17 494.852C1211.48 495.78 1213.11 496.244 1215.04 496.244ZM1232.14 501V470.84H1238.46V476.64H1238.75C1239.18 475.093 1240.07 473.74 1241.42 472.58C1242.77 471.42 1244.65 470.84 1247.05 470.84H1248.73V476.93H1246.23C1243.72 476.93 1241.79 477.336 1240.43 478.148C1239.12 478.96 1238.46 480.159 1238.46 481.744V501H1232.14ZM1261.83 501.696C1259.74 501.696 1257.83 501.329 1256.09 500.594C1254.39 499.859 1252.94 498.815 1251.74 497.462C1250.54 496.07 1249.61 494.407 1248.96 492.474C1248.3 490.502 1247.97 488.317 1247.97 485.92C1247.97 483.523 1248.3 481.357 1248.96 479.424C1249.61 477.452 1250.54 475.789 1251.74 474.436C1252.94 473.044 1254.39 471.981 1256.09 471.246C1257.83 470.511 1259.74 470.144 1261.83 470.144C1263.92 470.144 1265.81 470.511 1267.52 471.246C1269.26 471.981 1270.73 473.044 1271.92 474.436C1273.12 475.789 1274.05 477.452 1274.71 479.424C1275.37 481.357 1275.69 483.523 1275.69 485.92C1275.69 488.317 1275.37 490.502 1274.71 492.474C1274.05 494.407 1273.12 496.07 1271.92 497.462C1270.73 498.815 1269.26 499.859 1267.52 500.594C1265.81 501.329 1263.92 501.696 1261.83 501.696ZM1261.83 496.476C1264 496.476 1265.74 495.819 1267.05 494.504C1268.37 493.151 1269.02 491.14 1269.02 488.472V483.368C1269.02 480.7 1268.37 478.709 1267.05 477.394C1265.74 476.041 1264 475.364 1261.83 475.364C1259.67 475.364 1257.93 476.041 1256.61 477.394C1255.3 478.709 1254.64 480.7 1254.64 483.368V488.472C1254.64 491.14 1255.3 493.151 1256.61 494.504C1257.93 495.819 1259.67 496.476 1261.83 496.476ZM1297.64 496.012H1297.35C1296.7 497.791 1295.61 499.183 1294.11 500.188C1292.64 501.193 1290.9 501.696 1288.89 501.696C1285.06 501.696 1282.1 500.323 1280.01 497.578C1277.92 494.794 1276.88 490.908 1276.88 485.92C1276.88 480.932 1277.92 477.065 1280.01 474.32C1282.1 471.536 1285.06 470.144 1288.89 470.144C1290.9 470.144 1292.64 470.647 1294.11 471.652C1295.61 472.619 1296.7 474.011 1297.35 475.828H1297.64V458.08H1303.97V501H1297.64V496.012ZM1290.8 496.244C1292.73 496.244 1294.36 495.78 1295.67 494.852C1296.99 493.885 1297.64 492.629 1297.64 491.082V480.758C1297.64 479.211 1296.99 477.974 1295.67 477.046C1294.36 476.079 1292.73 475.596 1290.8 475.596C1288.6 475.596 1286.84 476.311 1285.52 477.742C1284.21 479.134 1283.55 480.99 1283.55 483.31V488.53C1283.55 490.85 1284.21 492.725 1285.52 494.156C1286.84 495.548 1288.6 496.244 1290.8 496.244ZM1327.21 496.012H1326.98C1326.71 496.747 1326.34 497.462 1325.88 498.158C1325.45 498.854 1324.89 499.473 1324.2 500.014C1323.54 500.517 1322.73 500.923 1321.76 501.232C1320.83 501.541 1319.75 501.696 1318.51 501.696C1315.38 501.696 1312.94 500.691 1311.2 498.68C1309.5 496.669 1308.65 493.789 1308.65 490.038V470.84H1314.97V489.226C1314.97 493.905 1316.91 496.244 1320.77 496.244C1321.59 496.244 1322.38 496.147 1323.15 495.954C1323.93 495.722 1324.6 495.393 1325.18 494.968C1325.8 494.543 1326.28 494.001 1326.63 493.344C1327.02 492.687 1327.21 491.913 1327.21 491.024V470.84H1333.53V501H1327.21V496.012ZM1350.18 501.696C1348.02 501.696 1346.09 501.329 1344.38 500.594C1342.68 499.859 1341.25 498.815 1340.09 497.462C1338.93 496.07 1338.04 494.407 1337.42 492.474C1336.81 490.502 1336.5 488.317 1336.5 485.92C1336.5 483.523 1336.81 481.357 1337.42 479.424C1338.04 477.452 1338.93 475.789 1340.09 474.436C1341.25 473.044 1342.68 471.981 1344.38 471.246C1346.09 470.511 1348.02 470.144 1350.18 470.144C1353.2 470.144 1355.68 470.821 1357.61 472.174C1359.54 473.527 1360.95 475.325 1361.84 477.568L1356.62 480.004C1356.2 478.612 1355.44 477.51 1354.36 476.698C1353.32 475.847 1351.92 475.422 1350.18 475.422C1347.86 475.422 1346.11 476.157 1344.91 477.626C1343.75 479.057 1343.17 480.932 1343.17 483.252V488.646C1343.17 490.966 1343.75 492.861 1344.91 494.33C1346.11 495.761 1347.86 496.476 1350.18 496.476C1352.04 496.476 1353.51 496.031 1354.59 495.142C1355.71 494.214 1356.6 492.996 1357.26 491.488L1362.07 494.04C1361.07 496.515 1359.56 498.409 1357.55 499.724C1355.54 501.039 1353.08 501.696 1350.18 501.696ZM1372.39 501C1370.18 501 1368.52 500.439 1367.4 499.318C1366.28 498.158 1365.72 496.534 1365.72 494.446V476.002H1361.02V470.84H1363.57C1364.61 470.84 1365.33 470.608 1365.72 470.144C1366.14 469.68 1366.35 468.926 1366.35 467.882V462.604H1372.04V470.84H1378.36V476.002H1372.04V495.838H1377.9V501H1372.39ZM1384.35 465.446C1383.03 465.446 1382.07 465.137 1381.45 464.518C1380.87 463.899 1380.58 463.107 1380.58 462.14V461.154C1380.58 460.187 1380.87 459.395 1381.45 458.776C1382.07 458.157 1383.03 457.848 1384.35 457.848C1385.66 457.848 1386.61 458.157 1387.19 458.776C1387.77 459.395 1388.06 460.187 1388.06 461.154V462.14C1388.06 463.107 1387.77 463.899 1387.19 464.518C1386.61 465.137 1385.66 465.446 1384.35 465.446ZM1381.16 470.84H1387.48V501H1381.16V470.84ZM1404.28 501.696C1402.19 501.696 1400.28 501.329 1398.54 500.594C1396.84 499.859 1395.39 498.815 1394.19 497.462C1392.99 496.07 1392.06 494.407 1391.4 492.474C1390.75 490.502 1390.42 488.317 1390.42 485.92C1390.42 483.523 1390.75 481.357 1391.4 479.424C1392.06 477.452 1392.99 475.789 1394.19 474.436C1395.39 473.044 1396.84 471.981 1398.54 471.246C1400.28 470.511 1402.19 470.144 1404.28 470.144C1406.37 470.144 1408.26 470.511 1409.96 471.246C1411.7 471.981 1413.17 473.044 1414.37 474.436C1415.57 475.789 1416.5 477.452 1417.15 479.424C1417.81 481.357 1418.14 483.523 1418.14 485.92C1418.14 488.317 1417.81 490.502 1417.15 492.474C1416.5 494.407 1415.57 496.07 1414.37 497.462C1413.17 498.815 1411.7 499.859 1409.96 500.594C1408.26 501.329 1406.37 501.696 1404.28 501.696ZM1404.28 496.476C1406.44 496.476 1408.18 495.819 1409.5 494.504C1410.81 493.151 1411.47 491.14 1411.47 488.472V483.368C1411.47 480.7 1410.81 478.709 1409.5 477.394C1408.18 476.041 1406.44 475.364 1404.28 475.364C1402.11 475.364 1400.37 476.041 1399.06 477.394C1397.74 478.709 1397.09 480.7 1397.09 483.368V488.472C1397.09 491.14 1397.74 493.151 1399.06 494.504C1400.37 495.819 1402.11 496.476 1404.28 496.476ZM1421.12 501V470.84H1427.45V475.828H1427.74C1428.39 474.204 1429.38 472.851 1430.69 471.768C1432.05 470.685 1433.88 470.144 1436.2 470.144C1439.3 470.144 1441.7 471.169 1443.4 473.218C1445.14 475.229 1446.01 478.109 1446.01 481.86V501H1439.68V482.672C1439.68 477.955 1437.79 475.596 1434 475.596C1433.19 475.596 1432.38 475.712 1431.56 475.944C1430.79 476.137 1430.1 476.447 1429.48 476.872C1428.86 477.297 1428.36 477.839 1427.97 478.496C1427.62 479.153 1427.45 479.927 1427.45 480.816V501H1421.12Z" fill="white" style="fill:white;fill-opacity:1;"/>
</svg>
